<svg t="1672662882791" class="icon" viewBox="0 0 1024 1024" version="1.1" xmlns="http://www.w3.org/2000/svg" p-id="4758"
  width="200" height="200">
  <path d="M504.9856 712.7552h50.7392v269.312h-50.7392z" fill="#F55651" p-id="4759"></path>
  <path d="M528.9984 768.6656v213.4016h22.8864v-224.8704z" fill="#E3413F" p-id="4760"></path>
  <path
    d="M555.7248 992.3072h-50.7392c-5.632 0-10.24-4.608-10.24-10.24v-269.312c0-5.632 4.608-10.24 10.24-10.24h50.7392c5.632 0 10.24 4.608 10.24 10.24v269.312a10.24 10.24 0 0 1-10.24 10.24z m-40.4992-20.48h30.2592v-248.832h-30.2592v248.832z"
    fill="#4B2254" p-id="4761"></path>
  <path
    d="M146.3296 134.6048c1.024-15.5136 19.968-22.528 30.8224-11.3664l157.952 161.536 533.0432 545.0752c11.8272 12.0832 32.256 2.7136 30.8224-14.1312L871.936 499.712l-345.7536-33.9968-37.2736 14.3872-360.8064-71.936 18.2272-273.5616z"
    fill="#FACF5D" p-id="4762"></path>
  <path d="M613.0688 81.3568L407.8592 850.0224l284.1088-200.3968-356.8128-364.8512z" fill="#F55651" p-id="4763"></path>
  <path
    d="M157.952 809.216L817.9712 164.864c9.984-9.728 5.5808-26.624-7.8848-30.2592L613.0688 81.408 407.8592 850.0224l-238.08-9.9328c-15.7696-0.6656-23.1424-19.8656-11.8272-30.8736z"
    fill="#FACF5D" p-id="4764"></path>
  <path d="M128.1024 408.1664l225.8944 209.6128 320.0512-312.4224L871.936 499.712l-345.7536-33.9968-37.2736 14.3872z"
    fill="#F55651" p-id="4765"></path>
  <path
    d="M899.0208 815.7184L871.936 499.712l-39.1168-3.84-1.8432 5.7856 26.4704 266.7008-123.5456-87.2448 5.9392 17.5104 128.3584 131.2256c11.8272 12.0832 32.256 2.7136 30.8224-14.1312zM810.0864 134.6048l-7.3216-1.9968-5.7856 2.3552-281.2416 272.0768 8.0896 8.4992 25.1904 11.8272 268.9536-262.5536c9.984-9.6768 5.5808-26.5728-7.8848-30.208zM501.8112 498.176l-32.9728 7.5264-89.8048 307.712-217.0368-8.1408-3.9936 3.8912c-11.3152 11.008-3.9424 30.208 11.8272 30.8736l238.08 9.984L501.8112 498.176zM177.152 123.2384c-2.4064-2.4576-5.2736-3.9936-8.192-4.8128l-1.792 5.7344 256.8704 308.8384-241.2032-17.4592 10.9056 5.7344 295.1168 58.8288 27.0336-10.4448-180.736-184.8832L177.152 123.2384zM605.7472 473.5488l-79.5648-7.8336-10.24 3.9424 36.7616 37.5808z"
    fill="#F8B031" p-id="4766"></path>
  <path
    d="M520.4992 474.3168l-18.3808 22.6304-14.7456 55.296 0.6144 5.5808s42.3936 8.4992 72.9088-18.2784c39.9872 48.896 76.6464 103.2704 76.6464 103.2704L424.448 797.0816l-15.3088 52.0704 282.8288-199.4752-171.4688-175.36zM674.048 305.3568l-109.7728 107.1616-19.6096 3.0208-14.336 46.0288s39.2192 14.5408 71.168 6.7584c-4.1984-26.112-15.6672-44.1344-21.9136-52.4288l93.7984-57.3952 132.0448 127.9488 66.048 12.8512-197.4272-193.9456zM335.1552 284.7744l164.096 167.7824-1.6384-25.1392-5.3248-7.7312 21.3504-4.1472s14.4384-2.1504 16.7936-29.0816c-26.9824-1.6896-45.5168 5.1712-54.4768 9.6256L400.896 287.8976l186.9312-137.2672 14.5408-29.0816 10.752-40.192-277.9648 203.4176zM353.9968 617.7792l114.7904-112.0768-12.8512-32.2048-33.7408-6.7072s4.1472 30.72 15.2576 45.2096c-33.9968 24.2688-82.3296 58.9312-82.3296 58.9312L203.8784 423.2704 133.12 412.8256l220.8768 204.9536z"
    fill="#E3413F" p-id="4767"></path>
  <path
    d="M880.9472 845.568c-7.3728 0-14.592-2.9696-20.0704-8.5504l-347.5456-355.3792-20.736 8.0384c-1.792 0.7168-3.7888 0.8704-5.6832 0.512L126.1056 418.2528c-5.0688-1.024-8.5504-5.5808-8.192-10.7008l18.2272-273.5616c0.768-11.264 7.7824-20.6848 18.3808-24.6272 10.5984-3.9424 22.0672-1.3312 30.0032 6.7584l334.08 341.6064 3.8912-1.536c1.4848-0.5632 3.1232-0.8192 4.7104-0.6144l345.7536 33.9968c4.9152 0.4608 8.7552 4.4032 9.216 9.3184l27.0848 316.0064c1.024 12.032-5.376 23.04-16.384 28.1088-3.8912 1.6896-7.936 2.56-11.9296 2.56zM537.6 477.1328l337.92 345.5488c3.5328 3.6352 7.6288 2.1504 8.7552 1.6384 1.1776-0.512 4.9152-2.6624 4.5056-7.7312l-26.368-307.5584L537.6 477.1328zM138.9056 399.9232L487.9872 469.504l9.7792-3.7888-327.936-335.3088c-3.1744-3.2256-6.8096-2.3552-8.2432-1.8432-1.4336 0.512-4.7616 2.2528-5.0688 6.7584l-17.6128 264.6016z"
    fill="#4B2254" p-id="4768"></path>
  <path
    d="M407.8592 860.2624c-2.048 0-4.096-0.6144-5.8368-1.8432a10.22464 10.22464 0 0 1-4.0448-11.0592l101.4784-380.0064-171.6224-175.4112c-2.0992-2.1504-3.1232-5.0688-2.8672-7.9872 0.256-2.9696 1.7408-5.6832 4.1472-7.424l277.9648-203.3664c3.4816-2.56 8.2432-2.6624 11.8272-0.2048 3.584 2.4576 5.2224 6.912 4.096 11.1104L522.24 461.4144l177.1008 181.0432c2.0992 2.1504 3.1744 5.12 2.8672 8.0896-0.256 2.9696-1.8432 5.7344-4.3008 7.424l-284.1088 200.3968c-1.792 1.28-3.8912 1.8944-5.9392 1.8944z m108.2368-375.8592L425.0624 825.344l251.2384-177.2032-160.2048-163.7376zM350.72 286.0544l154.8288 158.3104 90.1632-337.6128L350.72 286.0544z"
    fill="#4B2254" p-id="4769"></path>
  <path
    d="M407.8592 860.2624h-0.4096l-238.08-9.984c-11.4176-0.4608-21.0944-7.424-25.1904-18.1248-4.096-10.7008-1.536-22.3232 6.656-30.3104l350.7712-342.4256 101.632-380.7232c0.7168-2.6112 2.4064-4.864 4.7616-6.2464 2.3552-1.3824 5.1712-1.7408 7.7824-1.024l197.0176 53.1968c9.9328 2.6624 17.3568 10.1888 19.968 20.1216 2.56 9.9328-0.256 20.1728-7.5776 27.3408l-305.2544 298.0352-102.144 382.5152a10.3424 10.3424 0 0 1-9.9328 7.6288zM491.2128 498.176l-326.0928 318.3616c-3.2768 3.2256-2.3552 6.912-1.8432 8.3456 0.5632 1.4336 2.304 4.7616 6.912 4.9664l229.888 9.6256 91.136-341.2992z m-333.2608 311.04z m462.3872-715.264l-90.112 337.5104 280.6272-273.9712c2.9184-2.8672 2.4064-6.1952 2.0992-7.5264s-1.536-4.4544-5.4784-5.5296l-187.136-50.4832z"
    fill="#4B2254" p-id="4770"></path>
  <path
    d="M353.9968 628.0192c-2.5088 0-5.0176-0.9216-6.9632-2.7136L121.1392 415.6928c-3.3792-3.1232-4.2496-8.0896-2.1504-12.1856s6.656-6.2976 11.1104-5.376l357.888 71.3216 5.4784-2.0992 173.4144-169.3184c3.9936-3.8912 10.3424-3.8912 14.336 0l197.888 194.304c3.1232 3.0208 3.9424 7.68 2.0992 11.6224s-5.9904 6.2976-10.2912 5.8368l-343.3472-33.7408-22.8352 8.8064-143.5648 140.1856c-1.9968 1.9968-4.5568 2.9696-7.168 2.9696zM161.6384 425.3184l192.2048 178.3296 119.1424-116.3264-311.3472-62.0032z m372.5312 30.8736l309.8624 30.464-170.0352-166.9632-139.8272 136.4992z"
    fill="#4B2254" p-id="4771"></path>
  <path d="M513.5872 471.7568m-56.2176 0a56.2176 56.2176 0 1 0 112.4352 0 56.2176 56.2176 0 1 0-112.4352 0Z"
    fill="#FFFFFF" p-id="4772"></path>
  <path
    d="M500.0192 422.2464s34.8672 9.1136 39.9872 42.9056c4.6592 30.72-23.1424 51.1488-32.9216 55.808 18.6368 3.584 64.8192-11.4688 61.3376-61.2864-2.816-44.9536-57.856-42.6496-68.4032-37.4272z"
    fill="#F2F0E7" p-id="4773"></path>
  <path
    d="M513.5872 538.2144c-36.6592 0-66.4576-29.7984-66.4576-66.4576s29.7984-66.4576 66.4576-66.4576 66.4576 29.7984 66.4576 66.4576c-0.0512 36.6592-29.8496 66.4576-66.4576 66.4576z m0-112.4352c-25.344 0-45.9776 20.6336-45.9776 45.9776s20.6336 45.9776 45.9776 45.9776 45.9776-20.6336 45.9776-45.9776c-0.0512-25.344-20.6336-45.9776-45.9776-45.9776z"
    fill="#4B2254" p-id="4774"></path>
</svg>